<?xml version="1.0" encoding="utf-8"?>
<!-- Generator: Adobe Illustrator 16.2.1, SVG Export Plug-In . SVG Version: 6.00 Build 0)  -->
<!DOCTYPE svg PUBLIC "-//W3C//DTD SVG 1.1//EN" "http://www.w3.org/Graphics/SVG/1.1/DTD/svg11.dtd">
<svg version="1.1" xmlns="http://www.w3.org/2000/svg" xmlns:xlink="http://www.w3.org/1999/xlink" x="0px" y="0px" width="248px"
	 height="48px" viewBox="0 0 248 48" enable-background="new 0 0 248 48" xml:space="preserve">
<g id="background">
</g>
<g id="sidebar_content">
	<rect x="3.959" y="3.718" fill="#3FB7B7" width="40.683" height="6.255"/>
	<polygon fill="#FFFFFF" points="38.278,9.973 38.278,38.147 10.323,38.147 10.323,9.973 3.959,9.973 3.959,38.147 3.959,44.401 
		10.323,44.401 38.278,44.401 44.642,44.401 44.642,38.147 44.642,9.973 	"/>
	<text transform="matrix(1 0 0 1 53.9727 11.8843)" fill="#FFFFFF" font-family="'Lato-Regular'" font-size="10.3557">Reference product for N4S</text>
	<path fill="#FFFFFF" d="M59.048,22.37c-0.284,0.178-0.426,0.391-0.426,0.604l1.74,2.486c0,0.177-0.071,0.355-0.319,0.497
		c-2.699-1.741-4.296-4.119-4.296-5.966c0-1.348,0.816-2.343,2.272-2.343s2.592,1.136,2.592,2.485
		C60.611,21.127,59.937,21.838,59.048,22.37z M66.86,22.37c-0.285,0.178-0.426,0.391-0.426,0.604l1.739,2.486
		c0,0.177-0.071,0.355-0.319,0.497c-2.699-1.741-4.296-4.119-4.296-5.966c0-1.348,0.817-2.343,2.273-2.343
		c1.455,0,2.592,1.136,2.592,2.485C68.423,21.127,67.748,21.838,66.86,22.37z M86.708,21.34l-4.9,22.867h-5.113l5.042-23.471
		c-3.977,0-7.102,1.137-7.102,7.137c0,1.811,0.462,2.095,0.497,2.415c-2.45,0-3.799-0.887-3.799-3.444
		c0-4.723,3.337-9.232,12.108-9.232c1.456,0,5.646,0.604,9.125,0.604c1.634,0,3.125-0.142,4.083-0.533
		c-0.497,1.491-0.532,4.58-3.374,4.58C91.395,22.263,89.086,21.767,86.708,21.34z M95.264,41.652c1.739,0,4.722-2.06,5.965-4.688
		h1.598c-2.024,3.657-5.433,7.243-10.014,7.243c-3.409,0-5.255-2.592-5.255-5.646c0-4.509,1.917-12.428,8.38-12.428
		c2.912,0,4.545,1.208,4.545,3.693c0,4.332-4.651,6.817-8.025,7.244c-0.071,0.568-0.106,1.101-0.106,1.526
		C92.352,40.941,93.879,41.652,95.264,41.652z M97.11,28.016c-1.989,0-3.622,4.012-4.367,7.35c3.267-0.036,5.574-2.84,5.61-5.361
		C98.353,29.259,98.176,28.016,97.11,28.016z M117.526,26.454l-2.557,12.073c-0.071,0.391-0.142,0.78-0.142,1.1
		c0,0.781,0.355,1.35,1.775,1.35c1.421,0,3.267-1.989,4.688-3.125h1.207c-1.633,1.633-5.645,6.355-8.415,6.355
		c-2.308,0-3.871-0.853-4.332-2.699c-1.065,1.457-2.664,2.912-4.829,2.912c-3.409,0-4.403-2.414-4.403-4.509
		c0-6.107,2.202-13.422,9.303-13.422c0.853,0,1.74,0.355,2.379,0.888l0.213-0.924H117.526z M105.312,38.953
		c0,2.13,1.172,2.521,2.06,2.521c0.816,0,1.597-0.78,2.272-1.775c0.035-0.354,0.106-0.746,0.213-1.171l1.988-9.41
		c-0.568-0.498-1.243-0.639-1.74-0.639C107.442,28.478,105.312,34.124,105.312,38.953z M141.812,38.527
		c-0.106,0.426-0.177,0.887-0.177,1.313c0,0.816,0.319,1.455,1.456,1.455c1.421,0,2.912-2.094,3.728-3.621h1.669
		c-1.633,1.917-4.829,6.533-7.599,6.533c-2.77,0-4.403-1.207-4.403-3.871c0-0.568,0.071-1.136,0.213-1.81l1.35-6.392
		c0.071-0.32,0.106-0.64,0.106-0.923c0-1.279-0.675-2.095-1.633-2.095c-0.781,0-1.385,0.213-2.06,0.639
		c0.106,0.426,0.178,0.817,0.178,1.243c0,0.249-0.036,0.497-0.071,0.746l-2.627,12.463h-5.148l2.556-12.072
		c0.071-0.32,0.106-0.64,0.106-0.923c0-1.279-0.674-2.095-1.633-2.095c-0.852,0-1.456,0.249-2.166,0.746l-3.053,14.345h-5.114
		l3.764-17.754h5.113l-0.391,1.882c1.421-1.03,3.054-1.882,4.581-1.882c1.313,0,2.734,0.958,3.515,2.343
		c1.562-1.243,3.444-2.343,5.185-2.343c1.952,0,4.083,2.059,4.083,4.474c0,0.284-0.036,0.533-0.071,0.816L141.812,38.527z
		 M154.203,19.353l-1.705,8.06c0.816-0.604,1.882-1.029,3.054-1.029c3.409,0,4.51,2.414,4.51,4.509
		c0,5.575-3.054,13.422-9.411,13.422c-3.515,0-5.858-0.993-5.858-4.047c0-0.498,0.071-1.101,0.212-1.74l3.942-18.464L154.203,19.353
		z M154.061,28.513c-0.355,0-1.598,0.249-1.918,0.498l-2.024,9.517c-0.177,0.852-0.284,1.491-0.284,1.953
		c0,1.064,0.498,1.312,1.562,1.312c2.912,0,4.688-8.095,4.688-10.652C156.085,29.01,154.948,28.513,154.061,28.513z M174.508,31.318
		c0.213,0.213,0.533,0.32,1.03,0.32c1.669,0,2.414-1.208,3.729-1.739l0.142,0.745c-1.101,1.385-2.947,2.558-5.006,3.125
		c-0.675,7.137-4.545,10.652-8.096,10.652c-3.799,0-5.433-1.597-5.433-5.823c0-8.735,4.439-12.499,9.338-12.499
		C173.585,26.098,174.438,28.726,174.508,31.318z M171.775,34.124c-1.03,0-1.492-0.746-1.492-1.597c0-1.031,0.603-2.132,1.562-2.486
		c-0.107-1.172-0.497-1.846-1.491-1.846c-3.338,0-4.758,7.243-4.758,10.084c0,2.13,0.994,2.698,2.379,2.698
		C170.141,40.977,171.348,37.568,171.775,34.124z M192.545,26.454l-2.557,12.073c-0.071,0.391-0.142,0.78-0.142,1.1
		c0,0.781,0.356,1.35,1.775,1.35c1.42,0,3.267-1.989,4.688-3.125h1.208c-1.634,1.633-5.646,6.355-8.416,6.355
		c-2.309,0-3.87-0.853-4.333-2.699c-1.064,1.457-2.662,2.912-4.828,2.912c-3.41,0-4.404-2.414-4.404-4.509
		c0-6.107,2.202-13.422,9.304-13.422c0.852,0,1.739,0.355,2.378,0.888l0.214-0.924H192.545z M180.33,38.953
		c0,2.13,1.172,2.521,2.059,2.521c0.817,0,1.599-0.78,2.273-1.775c0.035-0.354,0.106-0.746,0.213-1.171l1.989-9.41
		c-0.568-0.498-1.243-0.639-1.74-0.639C182.461,28.478,180.33,34.124,180.33,38.953z M201.669,26.454l-0.39,1.776
		c1.278-0.995,2.698-1.776,4.189-1.776c1.597,0,2.557,0.924,2.557,2.272c0,1.243-0.923,2.77-2.663,2.77
		c-1.989,0-0.995-2.343-2.06-2.343c-1.065,0-1.634,0.39-2.451,1.136l-2.947,13.919h-5.114l3.764-17.754H201.669z M221.553,38.527
		c-0.107,0.426-0.177,0.817-0.177,1.207c0,0.746,0.282,1.314,1.277,1.314c0.25,0,0.64,0,0.923-0.107
		c-0.995,3.054-2.485,3.267-3.693,3.267c-2.059,0-3.16-1.065-3.514-2.663c-1.065,1.457-2.663,2.876-4.794,2.876
		c-3.408,0-4.404-2.414-4.404-4.509c0-6.107,2.202-13.422,9.305-13.422c0.852,0,1.739,0.391,2.379,0.888l1.562-7.315l5.22-0.71
		L221.553,38.527z M211.965,38.953c0,2.13,1.173,2.521,2.06,2.521c0.816,0,1.562-0.78,2.236-1.74
		c0.036-0.39,0.107-0.781,0.214-1.207l2.023-9.446c-0.568-0.461-1.243-0.603-1.741-0.603
		C214.096,28.478,211.965,34.124,211.965,38.953z"/>
	<text transform="matrix(1 0 0 1 228.2266 44.207)" fill="#FFFFFF" font-family="'Lobster1.3'" font-size="35.5051">”</text>
</g>
<g id="toolbar_content">
</g>
<g id="testboard">
	<g id="Recycling_Facility">
	</g>
</g>
<g id="Layer_1" display="none">
</g>
<g id="colors" display="none">
</g>
</svg>
